<?xml version="1.0" standalone="no"?>
<!DOCTYPE svg PUBLIC "-//W3C//DTD SVG 20010904//EN"
 "http://www.w3.org/TR/2001/REC-SVG-20010904/DTD/svg10.dtd">
<svg version="1.0" xmlns="http://www.w3.org/2000/svg"
 width="813.000000pt" height="1096.000000pt" viewBox="0 0 813.000000 1096.000000"
 preserveAspectRatio="xMidYMid meet">
<metadata>
Created by potrace 1.16, written by Peter Selinger 2001-2019
</metadata>
<g transform="translate(0.000000,1096.000000) scale(0.100000,-0.100000)"
fill="#000000" stroke="none">
<path d="M3900 10715 l0 -125 25 0 c22 0 25 4 25 34 0 50 16 52 45 6 20 -32
31 -40 55 -40 l31 0 -36 52 c-34 51 -34 53 -17 73 46 52 47 55 15 55 -23 0
-36 -8 -54 -35 -13 -19 -27 -35 -31 -35 -5 0 -8 32 -8 70 0 68 -1 70 -25 70
l-25 0 0 -125z"/>
<path d="M4300 10715 l0 -125 25 0 c17 0 25 6 26 18 0 9 1 37 2 62 2 43 3 45
32 45 30 0 30 0 33 -62 3 -59 4 -63 27 -63 24 0 25 2 25 74 0 102 -26 124
-102 91 -16 -6 -18 -1 -18 39 0 42 -2 46 -25 46 l-25 0 0 -125z"/>
<path d="M4879 10830 c-9 -5 -20 -21 -23 -35 -4 -14 -11 -25 -16 -25 -6 0 -10
-9 -10 -20 0 -11 5 -20 10 -20 6 0 10 -30 10 -70 0 -68 1 -70 25 -70 24 0 25
2 25 70 0 68 1 70 25 70 18 0 25 5 25 20 0 15 -7 20 -26 20 -34 0 -26 24 9 28
19 2 27 9 27 23 0 15 -7 19 -32 19 -18 0 -40 -5 -49 -10z"/>
<path d="M3220 10710 l0 -120 59 0 c74 0 108 12 122 44 15 32 4 75 -22 84 -19
7 -19 9 -5 21 9 8 16 24 16 37 0 36 -36 54 -107 54 l-63 0 0 -120z"/>
<path d="M3495 10761 c-33 -14 -48 -39 -48 -81 0 -49 23 -77 70 -86 39 -7 89
11 103 37 16 28 12 85 -8 109 -19 24 -84 35 -117 21z"/>
<path d="M3715 10761 c-33 -14 -48 -39 -48 -81 0 -49 23 -77 70 -86 39 -7 89
11 103 37 16 28 12 85 -8 109 -19 24 -84 35 -117 21z"/>
<path d="M4132 10758 c-34 -17 -40 -57 -12 -80 12 -10 30 -18 40 -18 25 0 50
-10 50 -21 0 -12 -67 -11 -91 1 -16 9 -19 7 -19 -13 0 -57 142 -47 157 11 7
28 -25 62 -57 62 -28 0 -51 11 -44 21 7 12 51 11 75 -1 16 -9 19 -7 19 13 0
17 -7 27 -22 31 -33 8 -70 6 -96 -6z"/>
<path d="M4565 10759 c-11 -6 -26 -19 -32 -27 -16 -19 -17 -76 -3 -102 14 -25
79 -44 124 -36 30 6 36 11 36 32 0 21 -3 23 -19 14 -39 -20 -101 -7 -101 22 0
4 30 8 66 8 l67 0 -7 32 c-4 18 -12 39 -20 46 -18 18 -86 25 -111 11z"/>
<path d="M264 10066 l-34 -34 0 -1757 0 -1757 34 -34 34 -34 3772 0 3772 0 34
34 34 34 0 1752 c0 1617 -1 1754 -17 1780 -9 16 -27 33 -40 39 -17 8 -1103 11
-3789 11 l-3766 0 -34 -34z m7607 -5 l29 -29 0 -1757 0 -1757 -29 -29 -29 -29
-3772 0 -3772 0 -29 29 -29 29 0 1757 0 1757 29 29 29 29 3772 0 3772 0 29
-29z"/>
<path d="M3010 9780 l0 -90 65 0 c51 0 65 3 65 15 0 11 -11 15 -40 15 -36 0
-40 3 -40 25 0 22 4 25 35 25 24 0 35 5 35 15 0 10 -11 15 -35 15 -28 0 -35 4
-35 20 0 17 7 20 40 20 29 0 40 4 40 15 0 12 -14 15 -65 15 l-65 0 0 -90z"/>
<path d="M3820 9780 c0 -83 2 -90 20 -90 16 0 19 8 22 61 l3 61 35 -61 c22
-38 42 -61 53 -61 15 0 17 11 17 90 0 72 -3 90 -14 90 -11 0 -16 -15 -18 -52
l-3 -53 -33 53 c-26 39 -40 52 -58 52 -24 0 -24 -2 -24 -90z"/>
<path d="M4500 9780 l0 -90 53 0 c56 0 68 5 84 34 11 20 6 56 -8 56 -5 0 -6
13 -3 30 9 45 -9 60 -72 60 l-54 0 0 -90z"/>
<path d="M4170 9823 c0 -5 8 -35 18 -68 14 -46 23 -61 39 -63 18 -3 24 5 36
45 l14 48 14 -47 c10 -38 18 -48 35 -48 17 0 24 12 41 70 20 67 20 70 2 70
-13 0 -22 -13 -32 -47 l-14 -48 -14 48 c-18 64 -44 65 -60 2 -13 -53 -24 -51
-33 5 -5 31 -11 40 -26 40 -11 0 -20 -3 -20 -7z"/>
<path d="M4696 9809 c-35 -28 -35 -70 0 -98 34 -26 68 -27 94 -1 41 41 12 120
-44 120 -13 0 -35 -9 -50 -21z"/>
<path d="M4862 9814 c-16 -11 -22 -25 -22 -54 0 -43 26 -70 68 -70 29 0 72 42
72 70 0 28 -43 70 -72 70 -13 0 -34 -7 -46 -16z"/>
<path d="M416 9354 c-13 -13 -16 -44 -16 -179 0 -158 1 -164 22 -179 20 -14
383 -16 3650 -16 3615 0 3628 0 3648 20 18 18 20 33 20 173 0 122 -3 157 -16
175 l-15 22 -3639 0 c-3294 0 -3640 -1 -3654 -16z m7299 -179 l0 -170 -3645 0
-3645 0 -3 160 c-1 87 0 165 2 172 4 11 679 13 3648 11 l3643 -3 0 -170z"/>
<path d="M416 8694 c-13 -13 -16 -44 -16 -179 0 -158 1 -164 22 -179 20 -14
383 -16 3650 -16 3615 0 3628 0 3648 20 18 18 20 33 20 173 0 122 -3 157 -16
175 l-15 22 -3639 0 c-3294 0 -3640 -1 -3654 -16z m7299 -179 l0 -170 -3645 0
-3645 0 -3 160 c-1 87 0 165 2 172 4 11 679 13 3648 11 l3643 -3 0 -170z"/>
<path d="M416 8034 c-13 -13 -16 -44 -16 -179 0 -158 1 -164 22 -179 20 -14
383 -16 3650 -16 3615 0 3628 0 3648 20 18 18 20 33 20 173 0 122 -3 157 -16
175 l-15 22 -3639 0 c-3294 0 -3640 -1 -3654 -16z m7299 -179 l0 -170 -3645 0
-3645 0 -3 160 c-1 87 0 165 2 172 4 11 679 13 3648 11 l3643 -3 0 -170z"/>
<path d="M509 7092 c-45 -23 -59 -37 -81 -81 -24 -46 -28 -67 -28 -136 0 -130
29 -188 114 -230 l50 -25 3501 0 c2618 0 3511 3 3536 12 97 32 139 105 139
239 0 74 -4 93 -28 140 -22 44 -36 58 -81 81 l-53 28 -3508 0 -3508 0 -53 -28z"/>
<path d="M264 6266 l-34 -34 0 -1782 0 -1782 34 -34 34 -34 3766 0 c4101 0
3807 -4 3834 55 9 20 12 446 12 1801 l0 1776 -34 34 -34 34 -3772 0 -3772 0
-34 -34z m7607 -5 l29 -29 0 -1782 0 -1782 -29 -29 -29 -29 -3772 0 -3772 0
-29 29 -29 29 0 1782 0 1782 29 29 29 29 3772 0 3772 0 29 -29z"/>
<path d="M4130 6060 c0 -27 -3 -30 -24 -24 -36 9 -64 -11 -72 -51 -4 -24 -1
-43 10 -59 13 -21 23 -24 71 -24 l55 1 0 93 c0 87 -1 94 -20 94 -16 0 -20 -7
-20 -30z"/>
<path d="M4290 5995 l0 -95 48 0 c61 0 82 20 82 78 0 47 -24 68 -66 58 -21 -6
-24 -3 -24 24 0 23 -4 30 -20 30 -19 0 -20 -7 -20 -95z"/>
<path d="M3239 6033 c-2 -80 1 -97 23 -115 23 -21 60 -23 91 -7 33 18 37 28
37 102 0 60 -2 67 -20 67 -17 0 -19 -8 -22 -66 -3 -70 -18 -94 -52 -81 -13 5
-16 21 -16 77 0 63 -2 70 -20 70 -17 0 -20 -7 -21 -47z"/>
<path d="M4472 6024 c-16 -11 -22 -25 -22 -54 0 -29 6 -43 22 -54 74 -52 160
41 95 102 -27 26 -64 28 -95 6z"/>
<path d="M4635 6015 c-14 -13 -25 -33 -25 -45 0 -28 43 -70 72 -70 42 0 68 27
68 70 0 67 -68 93 -115 45z"/>
<path d="M407 5682 c-15 -17 -17 -78 -17 -669 0 -617 1 -651 18 -666 17 -16
286 -17 3664 -17 3518 0 3645 1 3661 18 15 17 17 78 17 669 0 617 -1 651 -18
666 -17 16 -286 17 -3664 17 -3518 0 -3645 -1 -3661 -18z m7321 -4 c17 -17 17
-1309 0 -1326 -17 -17 -7299 -17 -7316 0 -17 17 -17 1309 0 1326 17 17 7299
17 7316 0z"/>
<path d="M615 4855 c-24 -23 -25 -30 -25 -150 0 -120 1 -127 25 -150 l24 -25
661 0 661 0 24 25 c24 23 25 30 25 150 0 120 -1 127 -25 150 l-24 25 -661 0
-661 0 -24 -25z"/>
<path d="M2146 4859 c-26 -20 -26 -22 -26 -148 0 -115 2 -131 21 -155 l20 -26
460 0 460 0 24 25 c24 23 25 30 25 150 0 120 -1 127 -25 150 l-24 25 -454 0
c-444 0 -455 0 -481 -21z m419 -105 c9 -4 21 -18 26 -32 9 -23 10 -24 28 -8
24 22 75 18 79 -6 3 -14 -3 -18 -28 -18 -25 0 -31 -4 -28 -17 3 -13 12 -17 31
-16 15 1 27 -2 27 -8 0 -11 -60 -12 -76 -1 -6 4 -14 16 -18 27 -7 16 -9 17
-13 5 -9 -26 -35 -40 -75 -40 l-38 0 0 60 0 60 34 0 c19 0 42 -3 51 -6z"/>
<path d="M407 4212 c-15 -17 -17 -78 -17 -669 0 -617 1 -651 18 -666 17 -16
286 -17 3664 -17 3518 0 3645 1 3661 18 15 17 17 78 17 669 0 617 -1 651 -18
666 -17 16 -286 17 -3664 17 -3518 0 -3645 -1 -3661 -18z m7321 -4 c17 -17 17
-1309 0 -1326 -17 -17 -7299 -17 -7316 0 -17 17 -17 1309 0 1326 17 17 7299
17 7316 0z"/>
<path d="M615 3385 c-24 -23 -25 -30 -25 -150 0 -120 1 -127 25 -150 l24 -25
661 0 661 0 24 25 c24 23 25 30 25 150 0 120 -1 127 -25 150 l-24 25 -661 0
-661 0 -24 -25z"/>
<path d="M2145 3385 c-24 -23 -25 -30 -25 -150 0 -120 1 -127 25 -150 l24 -25
456 0 456 0 24 25 c24 23 25 30 25 150 0 120 -1 127 -25 150 l-24 25 -456 0
-456 0 -24 -25z"/>
<path d="M281 2436 c-52 -29 -50 16 -51 -1105 l0 -1043 34 -34 34 -34 3772 0
3772 0 34 34 34 34 0 1047 0 1047 -34 34 -34 34 -3768 0 c-3109 -1 -3773 -3
-3793 -14z m7590 -25 l29 -29 0 -1047 0 -1047 -29 -29 -29 -29 -3772 0 -3772
0 -29 29 -29 29 0 1047 0 1047 29 29 29 29 3772 0 3772 0 29 -29z"/>
<path d="M3060 2145 l0 -95 48 0 c61 0 82 20 82 78 0 47 -24 68 -66 58 -21 -6
-24 -3 -24 24 0 23 -4 30 -20 30 -19 0 -20 -7 -20 -95z"/>
<path d="M4359 2228 c0 -7 -1 -50 -2 -96 l-2 -82 48 0 c58 0 87 24 87 73 0 43
-29 72 -65 63 -23 -6 -25 -4 -25 24 0 23 -4 30 -20 30 -11 0 -20 -6 -21 -12z"/>
<path d="M5620 2211 c0 -24 -3 -28 -20 -24 -11 3 -31 -2 -45 -11 -20 -13 -25
-25 -25 -56 0 -52 18 -68 80 -68 l50 0 0 94 c0 87 -1 94 -20 94 -15 0 -20 -7
-20 -29z"/>
<path d="M3242 2174 c-33 -23 -28 -92 9 -113 48 -27 109 6 109 59 0 58 -68 89
-118 54z"/>
<path d="M3405 2165 c-14 -13 -25 -33 -25 -45 0 -28 43 -70 72 -70 42 0 68 27
68 70 0 67 -68 93 -115 45z"/>
<path d="M407 1832 c-15 -17 -17 -78 -17 -669 0 -617 1 -651 18 -666 17 -16
286 -17 3664 -17 3518 0 3645 1 3661 18 15 17 17 78 17 669 0 617 -1 651 -18
666 -17 16 -286 17 -3664 17 -3518 0 -3645 -1 -3661 -18z m7321 -4 c17 -17 17
-1309 0 -1326 -17 -17 -7299 -17 -7316 0 -17 17 -17 1309 0 1326 17 17 7299
17 7316 0z"/>
<path d="M615 1005 c-24 -23 -25 -30 -25 -150 0 -120 1 -127 25 -150 l24 -25
911 0 911 0 24 25 c24 23 25 30 25 150 0 120 -1 127 -25 150 l-24 25 -911 0
-911 0 -24 -25z"/>
<path d="M2645 1005 c-24 -23 -25 -29 -25 -154 0 -189 -52 -171 507 -171 l454
0 24 25 c24 23 25 30 25 150 0 120 -1 127 -25 150 l-24 25 -456 0 -456 0 -24
-25z m425 -105 c10 -5 21 -21 24 -36 l7 -27 16 22 c19 27 76 26 81 -1 3 -14
-3 -18 -28 -18 -25 0 -31 -4 -28 -17 3 -13 12 -17 31 -16 15 1 27 -2 27 -8 0
-10 -50 -12 -74 -3 -9 3 -16 12 -16 20 0 19 -6 18 -30 -6 -13 -13 -33 -20 -60
-20 l-40 0 0 60 0 60 36 0 c19 0 44 -4 54 -10z"/>
</g>
</svg>
